<?xml version="1.0" encoding="UTF-8"?>
<!DOCTYPE svg PUBLIC "-//W3C//DTD SVG 1.1//EN" "http://www.w3.org/Graphics/SVG/1.1/DTD/svg11.dtd">
<svg xmlns="http://www.w3.org/2000/svg" version="1.1" width="1920px" height="384px" style="shape-rendering:geometricPrecision; text-rendering:geometricPrecision; image-rendering:optimizeQuality; fill-rule:evenodd; clip-rule:evenodd" xmlns:xlink="http://www.w3.org/1999/xlink">
<g><path style="opacity:0.975" fill="#800000" d="M 1129.5,32.5 C 1149.85,30.1102 1168.85,33.9435 1186.5,44C 1203.81,58.0242 1209.31,75.8575 1203,97.5C 1195.46,114.137 1182.96,119.303 1165.5,113C 1162.02,110.688 1159.02,107.854 1156.5,104.5C 1170.08,92.1647 1173.58,77.498 1167,60.5C 1159.93,51.761 1150.76,48.5943 1139.5,51C 1123.02,56.4183 1114.69,67.9183 1114.5,85.5C 1115.43,97.4697 1119.6,108.136 1127,117.5C 1141,133.5 1155,149.5 1169,165.5C 1186.1,185.717 1193.43,209.05 1191,235.5C 1183.39,268.115 1163.56,289.615 1131.5,300C 1102.86,308.703 1075.2,306.369 1048.5,293C 1027.13,277.565 1018.63,256.732 1023,230.5C 1029.91,200.233 1048.75,186.066 1079.5,188C 1092.66,190.558 1100.32,198.391 1102.5,211.5C 1070.91,213.256 1058.41,229.589 1065,260.5C 1071.21,273.444 1081.54,279.777 1096,279.5C 1110.72,279.307 1122.39,273.307 1131,261.5C 1140.37,241.666 1139.37,222.333 1128,203.5C 1114.05,184.619 1099.39,166.286 1084,148.5C 1077.87,140.362 1072.54,131.696 1068,122.5C 1056.14,81.0541 1070.31,52.5541 1110.5,37C 1116.93,35.3076 1123.26,33.8076 1129.5,32.5 Z"/></g>
<g><path style="opacity:0.977" fill="#800000" d="M 312.5,34.5 C 324.838,34.3335 337.171,34.5001 349.5,35C 364.298,36.6088 379.132,37.7755 394,38.5C 404.311,38.1509 414.478,36.8176 424.5,34.5C 419.464,70.1838 399.464,83.6838 364.5,75C 357.09,73.8181 349.757,72.3181 342.5,70.5C 337.116,93.4187 332.116,116.419 327.5,139.5C 344.5,139.5 361.5,139.5 378.5,139.5C 376.704,148.478 375.038,157.478 373.5,166.5C 356.167,166.5 338.833,166.5 321.5,166.5C 312.039,210.474 302.705,254.474 293.5,298.5C 276.167,298.5 258.833,298.5 241.5,298.5C 258.1,221 274.767,143.5 291.5,66C 291.167,65.1667 290.833,64.3333 290.5,63.5C 274.12,64.9289 262.287,72.9289 255,87.5C 248.321,106.949 245.988,126.949 248,147.5C 248.809,151.76 250.309,155.76 252.5,159.5C 227.442,162.311 214.442,151.144 213.5,126C 216.179,80.6436 239.512,51.9769 283.5,40C 293.226,37.7155 302.893,35.8822 312.5,34.5 Z"/></g>
<g><path style="opacity:0.97" fill="#800000" d="M 911.5,47.5 C 927.736,44.6993 939.236,50.6993 946,65.5C 950.534,81.9213 945.368,94.088 930.5,102C 907.423,107.744 894.09,98.9107 890.5,75.5C 891.718,61.6954 898.718,52.362 911.5,47.5 Z"/></g>
<g><path style="opacity:0.979" fill="#800000" d="M 1528.5,383.5 C 1522.83,383.5 1517.17,383.5 1511.5,383.5C 1525.42,318.221 1539.09,252.887 1552.5,187.5C 1543.56,190.036 1534.56,192.37 1525.5,194.5C 1522.93,217.045 1516.43,238.378 1506,258.5C 1485.64,293.093 1455.8,305.926 1416.5,297C 1402.87,293.031 1393.37,284.531 1388,271.5C 1370.27,297.856 1346.1,306.356 1315.5,297C 1305.47,290.955 1299.31,282.122 1297,270.5C 1296.22,261.126 1296.56,251.793 1298,242.5C 1302.13,224.195 1306.13,205.862 1310,187.5C 1311.45,179.214 1311.79,170.881 1311,162.5C 1308.36,155.098 1303.2,152.265 1295.5,154C 1287.72,157.78 1281.89,163.614 1278,171.5C 1276.06,175.723 1274.39,180.056 1273,184.5C 1265.13,222.195 1257.13,259.861 1249,297.5C 1231.91,298.492 1214.74,298.825 1197.5,298.5C 1214.11,218.561 1231.11,138.727 1248.5,59C 1266.18,55.924 1283.85,53.7574 1301.5,52.5C 1294.82,80.7156 1288.99,109.049 1284,137.5C 1299.63,121.967 1318.13,117.134 1339.5,123C 1350.95,127.377 1358.11,135.544 1361,147.5C 1362.35,154.792 1362.69,162.125 1362,169.5C 1356.82,196.905 1351.32,224.238 1345.5,251.5C 1345.31,260.808 1349.81,265.808 1359,266.5C 1371.19,264.986 1379.19,258.32 1383,246.5C 1383.77,216.873 1391.43,189.206 1406,163.5C 1414.41,150.418 1424.91,139.251 1437.5,130C 1456.03,119.424 1475.69,116.424 1496.5,121C 1508.27,125.102 1516.44,132.936 1521,144.5C 1524.45,154.545 1525.95,164.878 1525.5,175.5C 1536.7,176.028 1547.2,173.695 1557,168.5C 1561.1,149.142 1565.27,129.809 1569.5,110.5C 1586.82,109.334 1604.16,109.167 1621.5,110C 1619.28,117.72 1617.78,125.554 1617,133.5C 1636.45,119.285 1657.28,116.785 1679.5,126C 1690.08,132.987 1696.25,142.821 1698,155.5C 1702.44,192.32 1696.44,227.32 1680,260.5C 1659.15,295.898 1628.98,307.731 1589.5,296C 1586.78,294.403 1584.61,292.237 1583,289.5C 1577,317.5 1571,345.5 1565,373.5C 1552.76,376.908 1540.59,380.241 1528.5,383.5 Z M 1478.5,141.5 C 1488.24,139.78 1493.74,143.78 1495,153.5C 1495.82,156.227 1495.65,158.894 1494.5,161.5C 1487.78,165.615 1484.78,171.615 1485.5,179.5C 1485.25,183.741 1486.09,187.741 1488,191.5C 1490.54,193.002 1492.71,194.836 1494.5,197C 1491.66,218.187 1484.5,237.687 1473,255.5C 1469.03,260.475 1464.2,264.309 1458.5,267C 1443.85,269.024 1436.68,262.524 1437,247.5C 1436.68,213.439 1445.68,182.106 1464,153.5C 1468.15,148.503 1472.98,144.503 1478.5,141.5 Z M 1629.5,146.5 C 1642.61,146.442 1649.44,153.108 1650,166.5C 1651.55,194.563 1646.21,221.229 1634,246.5C 1631.16,251.519 1627.82,256.186 1624,260.5C 1615.22,268.571 1605.05,271.071 1593.5,268C 1591.6,266.185 1589.93,264.185 1588.5,262C 1595.74,228.886 1602.9,195.719 1610,162.5C 1614.92,155.066 1621.42,149.732 1629.5,146.5 Z"/></g>
<g><path style="opacity:0.981" fill="#800000" d="M 787.5,120.5 C 816.986,118.162 832.653,131.662 834.5,161C 833.807,165.81 833.307,170.643 833,175.5C 827.353,200.417 822.187,225.417 817.5,250.5C 816.777,260.275 821.277,265.609 831,266.5C 838.4,265.783 844.4,262.45 849,256.5C 853.113,250.609 856.446,244.276 859,237.5C 867.644,199.26 875.81,160.926 883.5,122.5C 900.833,122.5 918.167,122.5 935.5,122.5C 926.182,165.923 917.182,209.423 908.5,253C 908.074,258.709 910.407,262.709 915.5,265C 921.832,265.941 927.999,265.441 934,263.5C 933.423,283.083 923.589,295.25 904.5,300C 881.361,304.189 865.861,295.356 858,273.5C 843.317,294.516 823.15,303.35 797.5,300C 784.801,297.637 775.967,290.47 771,278.5C 766.724,265.96 766.39,253.293 770,240.5C 775.722,217.724 780.222,194.724 783.5,171.5C 783.817,155.954 776.817,150.787 762.5,156C 754.687,162.503 749.187,170.669 746,180.5C 737.179,219.772 728.679,259.106 720.5,298.5C 703.163,298.667 685.83,298.5 668.5,298C 681.405,239.641 693.739,181.141 705.5,122.5C 722.833,122.5 740.167,122.5 757.5,122.5C 756.331,127.833 755.498,133.166 755,138.5C 763.951,128.944 774.785,122.944 787.5,120.5 Z"/></g>
<g><path style="opacity:0.98" fill="#800000" d="M 395.5,122.5 C 412.833,122.5 430.167,122.5 447.5,122.5C 439.067,163.166 430.567,203.833 422,244.5C 421.333,249.167 421.333,253.833 422,258.5C 423.468,262.972 426.468,265.638 431,266.5C 439.778,265.443 446.444,261.109 451,253.5C 453.377,249.71 455.377,245.71 457,241.5C 466.204,201.982 474.704,162.315 482.5,122.5C 499.833,122.5 517.167,122.5 534.5,122.5C 525.182,165.923 516.182,209.423 507.5,253C 508.174,262.008 513.007,266.508 522,266.5C 534.398,263.434 542.732,255.768 547,243.5C 556.663,203.35 565.497,163.017 573.5,122.5C 590.846,122.167 608.179,122.5 625.5,123.5C 623.744,129.777 622.577,136.11 622,142.5C 631.201,133.315 642.035,126.815 654.5,123C 678.028,120.354 688.861,130.854 687,154.5C 681.629,171.772 670.129,177.939 652.5,173C 650.959,171.421 649.792,169.587 649,167.5C 647.806,162.721 646.306,158.055 644.5,153.5C 643.312,152.16 641.812,151.493 640,151.5C 630.88,153.228 623.213,157.561 617,164.5C 606.798,209.008 597.298,253.674 588.5,298.5C 571.167,298.5 553.833,298.5 536.5,298.5C 537.67,293.171 538.503,287.838 539,282.5C 522.431,298.186 502.931,303.686 480.5,299C 467.624,293.446 460.458,283.613 459,269.5C 445.114,292.86 424.614,303.026 397.5,300C 381.664,295.831 372.497,285.665 370,269.5C 369.333,262.167 369.333,254.833 370,247.5C 378.438,205.81 386.938,164.144 395.5,122.5 Z"/></g>
</svg>
